<?xml version="1.0" encoding="UTF-8" standalone="no"?>
<!-- Created with Inkscape (http://www.inkscape.org/) -->
<svg
   xmlns:svg="http://www.w3.org/2000/svg"
   xmlns="http://www.w3.org/2000/svg"
   version="1.0"
   width="464.39673"
   height="260.52396"
   id="svg2">
  <defs
     id="defs4">
    <marker
       refX="0"
       refY="0"
       orient="auto"
       id="marker7141"
       style="overflow:visible">
      <path
         d="M 0,0 L 5,-5 L -12.5,0 L 5,5 L 0,0 z"
         transform="matrix(-0.8,0,0,-0.8,-10,0)"
         id="path6886"
         style="fill-rule:evenodd;stroke:#000000;stroke-width:1pt;marker-start:none" />
    </marker>
    <marker
       refX="0"
       refY="0"
       orient="auto"
       id="Arrow2Lstart"
       style="overflow:visible">
      <path
         d="M 8.7185878,4.0337352 L -2.2072895,0.01601326 L 8.7185884,-4.0017078 C 6.97309,-1.6296469 6.9831476,1.6157441 8.7185878,4.0337352 L 8.7185878,4.0337352 z"
         transform="matrix(1.1,0,0,1.1,1.1,0)"
         id="path3653"
         style="font-size:12px;fill-rule:evenodd;stroke-width:0.625;stroke-linejoin:round" />
    </marker>
    <marker
       refX="0"
       refY="0"
       orient="auto"
       id="Arrow2Lend"
       style="overflow:visible">
      <path
         d="M 8.7185878,4.0337352 L -2.2072895,0.01601326 L 8.7185884,-4.0017078 C 6.97309,-1.6296469 6.9831476,1.6157441 8.7185878,4.0337352 L 8.7185878,4.0337352 z"
         transform="matrix(-1.1,0,0,-1.1,-1.1,0)"
         id="path3656"
         style="font-size:12px;fill-rule:evenodd;stroke-width:0.625;stroke-linejoin:round" />
    </marker>
    <marker
       refX="0"
       refY="0"
       orient="auto"
       id="Arrow1Lend"
       style="overflow:visible">
      <path
         d="M 0,0 L 5,-5 L -12.5,0 L 5,5 L 0,0 z"
         transform="matrix(-0.8,0,0,-0.8,-10,0)"
         id="path3638"
         style="fill-rule:evenodd;stroke:#000000;stroke-width:1pt;marker-start:none" />
    </marker>
    <marker
       refX="0"
       refY="0"
       orient="auto"
       id="Arrow2Mstart"
       style="overflow:visible">
      <path
         d="M 8.7185878,4.0337352 L -2.2072895,0.01601326 L 8.7185884,-4.0017078 C 6.97309,-1.6296469 6.9831476,1.6157441 8.7185878,4.0337352 L 8.7185878,4.0337352 z"
         transform="scale(0.6,0.6)"
         id="path3659"
         style="font-size:12px;fill-rule:evenodd;stroke-width:0.625;stroke-linejoin:round" />
    </marker>
    <marker
       refX="0"
       refY="0"
       orient="auto"
       id="Arrow2Mend"
       style="overflow:visible">
      <path
         d="M 8.7185878,4.0337352 L -2.2072895,0.01601326 L 8.7185884,-4.0017078 C 6.97309,-1.6296469 6.9831476,1.6157441 8.7185878,4.0337352 L 8.7185878,4.0337352 z"
         transform="scale(-0.6,-0.6)"
         id="path3662"
         style="font-size:12px;fill-rule:evenodd;stroke-width:0.625;stroke-linejoin:round" />
    </marker>
    <marker
       refX="0"
       refY="0"
       orient="auto"
       id="Arrow2Lend-6"
       style="overflow:visible">
      <path
         d="M 8.7185878,4.0337352 L -2.2072895,0.01601326 L 8.7185884,-4.0017078 C 6.97309,-1.6296469 6.9831476,1.6157441 8.7185878,4.0337352 L 8.7185878,4.0337352 z"
         transform="matrix(-1.1,0,0,-1.1,-1.1,0)"
         id="path3656-0"
         style="font-size:12px;fill-rule:evenodd;stroke-width:0.625;stroke-linejoin:round" />
    </marker>
  </defs>
  <g
     transform="translate(-135.68775,-233.683)"
     id="layer1">
    <text
       x="64.700272"
       y="-38.140511"
       transform="translate(269.8848,231.7207)"
       id="text5424"
       xml:space="preserve"
       style="font-size:40px;font-style:normal;font-weight:normal;fill:#000000;fill-opacity:1;stroke:none;font-family:Bitstream Vera Sans"><tspan
         x="64.700272"
         y="-38.140511"
         id="tspan5426" /></text>
    <text
       x="240.32921"
       y="316.76682"
       id="text3712-5-7-1"
       xml:space="preserve"
       style="font-size:12px;font-style:italic;font-variant:normal;font-weight:normal;font-stretch:normal;text-align:start;line-height:100%;writing-mode:lr-tb;text-anchor:start;fill:#000000;fill-opacity:1;stroke:none;font-family:Palatino;-inkscape-font-specification:Palatino Italic"><tspan
         x="240.32921"
         y="316.76682"
         id="tspan8173"
         style="font-size:16px;font-style:normal;font-variant:normal;font-weight:normal;font-stretch:normal;text-align:center;line-height:100%;writing-mode:lr-tb;text-anchor:middle;font-family:Palatino;-inkscape-font-specification:Palatino" /></text>
    <rect
       width="42.179855"
       height="123.64854"
       x="373.77597"
       y="255.8063"
       id="rect5048"
       style="fill:#ffffff;fill-opacity:1;fill-rule:nonzero;stroke:#000000;stroke-width:0.81431162;stroke-linejoin:miter;stroke-miterlimit:4;stroke-dasharray:none;stroke-opacity:1" />
    <path
       d="M 373.86881,272.37658 L 416.18321,272.37658"
       id="path5066"
       style="fill:none;fill-rule:evenodd;stroke:#000000;stroke-width:1px;stroke-linecap:butt;stroke-linejoin:miter;stroke-opacity:1" />
    <path
       d="M 373.86881,289.17425 L 416.18321,289.17425"
       id="path5068"
       style="fill:none;fill-rule:evenodd;stroke:#000000;stroke-width:1px;stroke-linecap:butt;stroke-linejoin:miter;stroke-opacity:1" />
    <path
       d="M 373.86881,307.13203 L 416.18321,307.13203"
       id="path5070"
       style="fill:none;fill-rule:evenodd;stroke:#000000;stroke-width:1px;stroke-linecap:butt;stroke-linejoin:miter;stroke-opacity:1" />
    <path
       d="M 373.86881,323.92971 L 416.18321,323.92971"
       id="path5072"
       style="fill:none;fill-rule:evenodd;stroke:#000000;stroke-width:1px;stroke-linecap:butt;stroke-linejoin:miter;stroke-opacity:1" />
    <path
       d="M 373.86881,342.72737 L 416.18321,342.72737"
       id="path5074"
       style="fill:none;fill-rule:evenodd;stroke:#000000;stroke-width:1px;stroke-linecap:butt;stroke-linejoin:miter;stroke-opacity:1" />
    <path
       d="M 373.86881,360.36492 L 416.18321,360.36492"
       id="path5076"
       style="fill:none;fill-rule:evenodd;stroke:#000000;stroke-width:1px;stroke-linecap:butt;stroke-linejoin:miter;stroke-opacity:1" />
    <path
       d="M 196.53271,231.93427 A 26.456326,25.616444 0 1 1 143.62006,231.93427 A 26.456326,25.616444 0 1 1 196.53271,231.93427 z"
       transform="translate(223.52968,197.52162)"
       id="path5078"
       style="fill:#ffffff;fill-opacity:1;fill-rule:nonzero;stroke:#000000;stroke-width:1;stroke-linejoin:miter;stroke-miterlimit:4;stroke-dasharray:none;stroke-opacity:1" />
    <text
       x="393.76233"
       y="434.13351"
       id="text5080"
       xml:space="preserve"
       style="font-size:20px;font-style:normal;font-variant:normal;font-weight:normal;font-stretch:normal;fill:#000000;fill-opacity:1;stroke:none;stroke-width:1px;stroke-linecap:butt;stroke-linejoin:miter;stroke-opacity:1;font-family:Palatino;-inkscape-font-specification:Palatino"><tspan
         x="393.76233"
         y="434.13351"
         id="tspan5082"
         style="text-align:center;text-anchor:middle">+</tspan></text>
    <rect
       width="42.079113"
       height="156.51019"
       x="407.57642"
       y="-599.62695"
       transform="matrix(0,1,-1,0,0,0)"
       id="rect5084"
       style="fill:#ffffff;fill-opacity:1;fill-rule:nonzero;stroke:#000000;stroke-width:0.915057;stroke-linejoin:miter;stroke-miterlimit:4;stroke-dasharray:none;stroke-opacity:1" />
    <path
       d="M 583.41969,407.61891 L 583.41969,449.93331"
       id="path5090"
       style="fill:none;fill-rule:evenodd;stroke:#000000;stroke-width:1px;stroke-linecap:butt;stroke-linejoin:miter;stroke-opacity:1" />
    <path
       d="M 566.62202,407.61891 L 566.62202,449.93331"
       id="path5092"
       style="fill:none;fill-rule:evenodd;stroke:#000000;stroke-width:1px;stroke-linecap:butt;stroke-linejoin:miter;stroke-opacity:1" />
    <path
       d="M 548.14459,407.61891 L 548.14459,449.93331"
       id="path5094"
       style="fill:none;fill-rule:evenodd;stroke:#000000;stroke-width:1px;stroke-linecap:butt;stroke-linejoin:miter;stroke-opacity:1" />
    <path
       d="M 531.34692,407.61891 L 531.34692,449.93331"
       id="path5096"
       style="fill:none;fill-rule:evenodd;stroke:#000000;stroke-width:1px;stroke-linecap:butt;stroke-linejoin:miter;stroke-opacity:1" />
    <path
       d="M 515.38914,407.61891 L 515.38914,449.93331"
       id="path5098"
       style="fill:none;fill-rule:evenodd;stroke:#000000;stroke-width:1px;stroke-linecap:butt;stroke-linejoin:miter;stroke-opacity:1" />
    <path
       d="M 498.59146,407.61891 L 498.59146,449.93331"
       id="path5100"
       style="fill:none;fill-rule:evenodd;stroke:#000000;stroke-width:1px;stroke-linecap:butt;stroke-linejoin:miter;stroke-opacity:1" />
    <path
       d="M 481.7938,407.61891 L 481.7938,449.93331"
       id="path5102"
       style="fill:none;fill-rule:evenodd;stroke:#000000;stroke-width:1px;stroke-linecap:butt;stroke-linejoin:miter;stroke-opacity:1" />
    <path
       d="M 464.15625,407.61891 L 464.15625,449.93331"
       id="path5104"
       style="fill:none;fill-rule:evenodd;stroke:#000000;stroke-width:1px;stroke-linecap:butt;stroke-linejoin:miter;stroke-opacity:1" />
    <g
       transform="matrix(0,1,-1,0,646.68644,164.35199)"
       id="g5141">
      <rect
         width="41.994167"
         height="187.29399"
         x="244.9467"
         y="300.95374"
         id="rect5119"
         style="fill:#ffffff;fill-opacity:1;fill-rule:nonzero;stroke:#000000;stroke-width:1;stroke-linejoin:miter;stroke-miterlimit:4;stroke-dasharray:none;stroke-opacity:1" />
      <path
         d="M 244.94671,315.23175 L 287.78076,315.23175"
         id="path5121"
         style="fill:none;fill-rule:evenodd;stroke:#000000;stroke-width:1px;stroke-linecap:butt;stroke-linejoin:miter;stroke-opacity:1" />
      <path
         d="M 244.94671,330.34965 L 287.78076,330.34965"
         id="path5123"
         style="fill:none;fill-rule:evenodd;stroke:#000000;stroke-width:1px;stroke-linecap:butt;stroke-linejoin:miter;stroke-opacity:1" />
      <path
         d="M 244.94671,347.9872 L 287.26111,347.9872"
         id="path5125"
         style="fill:none;fill-rule:evenodd;stroke:#000000;stroke-width:1px;stroke-linecap:butt;stroke-linejoin:miter;stroke-opacity:1" />
      <path
         d="M 244.94671,364.78487 L 287.26111,364.78487"
         id="path5127"
         style="fill:none;fill-rule:evenodd;stroke:#000000;stroke-width:1px;stroke-linecap:butt;stroke-linejoin:miter;stroke-opacity:1" />
      <path
         d="M 244.94671,383.2623 L 287.26111,383.2623"
         id="path5129"
         style="fill:none;fill-rule:evenodd;stroke:#000000;stroke-width:1px;stroke-linecap:butt;stroke-linejoin:miter;stroke-opacity:1" />
      <path
         d="M 244.94671,400.05997 L 287.26111,400.05997"
         id="path5131"
         style="fill:none;fill-rule:evenodd;stroke:#000000;stroke-width:1px;stroke-linecap:butt;stroke-linejoin:miter;stroke-opacity:1" />
      <path
         d="M 244.94671,416.01775 L 287.26111,416.01775"
         id="path5133"
         style="fill:none;fill-rule:evenodd;stroke:#000000;stroke-width:1px;stroke-linecap:butt;stroke-linejoin:miter;stroke-opacity:1" />
      <path
         d="M 244.94671,432.81543 L 287.26111,432.81543"
         id="path5135"
         style="fill:none;fill-rule:evenodd;stroke:#000000;stroke-width:1px;stroke-linecap:butt;stroke-linejoin:miter;stroke-opacity:1" />
      <path
         d="M 244.94671,449.61309 L 287.26111,449.61309"
         id="path5137"
         style="fill:none;fill-rule:evenodd;stroke:#000000;stroke-width:1px;stroke-linecap:butt;stroke-linejoin:miter;stroke-opacity:1" />
      <path
         d="M 244.94671,467.25064 L 287.26111,467.25064"
         id="path5139"
         style="fill:none;fill-rule:evenodd;stroke:#000000;stroke-width:1px;stroke-linecap:butt;stroke-linejoin:miter;stroke-opacity:1" />
    </g>
    <path
       d="M -141.1004,69.41684 A 5.4592419,5.8791838 0 1 1 -152.01889,69.41684 A 5.4592419,5.8791838 0 1 1 -141.1004,69.41684 z"
       transform="translate(484.73341,361.29887)"
       id="path5154"
       style="fill:#ff0000;fill-opacity:1;fill-rule:nonzero;stroke:#000000;stroke-width:0;stroke-linejoin:miter;stroke-miterlimit:4;stroke-dasharray:none;stroke-opacity:1" />
    <path
       d="M -141.1004,69.41684 A 5.4592419,5.8791838 0 1 1 -152.01889,69.41684 A 5.4592419,5.8791838 0 1 1 -141.1004,69.41684 z"
       transform="translate(470.03545,361.29887)"
       id="path5156"
       style="fill:#ff0000;fill-opacity:1;fill-rule:nonzero;stroke:#000000;stroke-width:0;stroke-linejoin:miter;stroke-miterlimit:4;stroke-dasharray:none;stroke-opacity:1" />
    <path
       d="M -141.1004,69.41684 A 5.4592419,5.8791838 0 1 1 -152.01889,69.41684 A 5.4592419,5.8791838 0 1 1 -141.1004,69.41684 z"
       transform="translate(453.23778,361.29887)"
       id="path5158"
       style="fill:#ff0000;fill-opacity:1;fill-rule:nonzero;stroke:#000000;stroke-width:0;stroke-linejoin:miter;stroke-miterlimit:4;stroke-dasharray:none;stroke-opacity:1" />
    <path
       d="M -141.1004,69.41684 A 5.4592419,5.8791838 0 1 1 -152.01889,69.41684 A 5.4592419,5.8791838 0 1 1 -141.1004,69.41684 z"
       transform="translate(437.28,361.29887)"
       id="path5160"
       style="fill:#0000ff;fill-opacity:1;fill-rule:nonzero;stroke:#000000;stroke-width:0;stroke-linejoin:miter;stroke-miterlimit:4;stroke-dasharray:none;stroke-opacity:1" />
    <path
       d="M -141.1004,69.41684 A 5.4592419,5.8791838 0 1 1 -152.01889,69.41684 A 5.4592419,5.8791838 0 1 1 -141.1004,69.41684 z"
       transform="translate(417.96268,361.29887)"
       id="path5164"
       style="fill:#0000ff;fill-opacity:1;fill-rule:nonzero;stroke:#000000;stroke-width:0;stroke-linejoin:miter;stroke-miterlimit:4;stroke-dasharray:none;stroke-opacity:1" />
    <path
       d="M -141.1004,69.41684 A 5.4592419,5.8791838 0 1 1 -152.01889,69.41684 A 5.4592419,5.8791838 0 1 1 -141.1004,69.41684 z"
       transform="translate(401.16501,361.29887)"
       id="path5166"
       style="fill:#0000ff;fill-opacity:1;fill-rule:nonzero;stroke:#000000;stroke-width:0;stroke-linejoin:miter;stroke-miterlimit:4;stroke-dasharray:none;stroke-opacity:1" />
    <path
       d="M -141.1004,69.41684 A 5.4592419,5.8791838 0 1 1 -152.01889,69.41684 A 5.4592419,5.8791838 0 1 1 -141.1004,69.41684 z"
       transform="translate(384.36735,361.29887)"
       id="path5168"
       style="fill:#0000ff;fill-opacity:1;fill-rule:nonzero;stroke:#000000;stroke-width:0;stroke-linejoin:miter;stroke-miterlimit:4;stroke-dasharray:none;stroke-opacity:1" />
    <path
       d="M -141.1004,69.41684 A 5.4592419,5.8791838 0 1 1 -152.01889,69.41684 A 5.4592419,5.8791838 0 1 1 -141.1004,69.41684 z"
       transform="translate(368.40957,361.29887)"
       id="path5170"
       style="fill:#00ff00;fill-opacity:1;fill-rule:nonzero;stroke:#000000;stroke-width:0;stroke-linejoin:miter;stroke-miterlimit:4;stroke-dasharray:none;stroke-opacity:1" />
    <path
       d="M -141.1004,69.41684 A 5.4592419,5.8791838 0 1 1 -152.01889,69.41684 A 5.4592419,5.8791838 0 1 1 -141.1004,69.41684 z"
       transform="translate(351.6119,361.29887)"
       id="path5172"
       style="fill:#00ff00;fill-opacity:1;fill-rule:nonzero;stroke:#000000;stroke-width:0;stroke-linejoin:miter;stroke-miterlimit:4;stroke-dasharray:none;stroke-opacity:1" />
    <path
       d="M -141.1004,69.41684 A 5.4592419,5.8791838 0 1 1 -152.01889,69.41684 A 5.4592419,5.8791838 0 1 1 -141.1004,69.41684 z"
       transform="translate(334.81423,361.29887)"
       id="path5174"
       style="fill:#000000;fill-opacity:1;fill-rule:nonzero;stroke:#000000;stroke-width:0;stroke-linejoin:miter;stroke-miterlimit:4;stroke-dasharray:none;stroke-opacity:1" />
    <path
       d="M -141.1004,69.41684 A 5.4592419,5.8791838 0 1 1 -152.01889,69.41684 A 5.4592419,5.8791838 0 1 1 -141.1004,69.41684 z"
       transform="translate(315.49691,360.45899)"
       id="path5176"
       style="fill:#00ffff;fill-opacity:1;fill-rule:nonzero;stroke:#000000;stroke-width:0;stroke-linejoin:miter;stroke-miterlimit:4;stroke-dasharray:none;stroke-opacity:1" />
    <path
       d="M 346.15266,430.71571 L 365.46997,430.71571"
       id="path5178"
       style="fill:none;stroke:#000000;stroke-width:1px;stroke-linecap:butt;stroke-linejoin:miter;marker-end:url(#Arrow2Lend);stroke-opacity:1" />
    <path
       d="M 394.04362,402.99362 L 394.04362,383.67631"
       id="path5186"
       style="fill:none;stroke:#000000;stroke-width:1px;stroke-linecap:butt;stroke-linejoin:miter;marker-end:url(#Arrow2Lend);stroke-opacity:1" />
    <path
       d="M -141.1004,69.41684 A 5.4592419,5.8791838 0 1 1 -152.01889,69.41684 A 5.4592419,5.8791838 0 1 1 -141.1004,69.41684 z"
       transform="translate(540.58566,300.82727)"
       id="path5188"
       style="fill:#ff0000;fill-opacity:1;fill-rule:nonzero;stroke:#000000;stroke-width:0;stroke-linejoin:miter;stroke-miterlimit:4;stroke-dasharray:none;stroke-opacity:1" />
    <path
       d="M -141.1004,69.41684 A 5.4592419,5.8791838 0 1 1 -152.01889,69.41684 A 5.4592419,5.8791838 0 1 1 -141.1004,69.41684 z"
       transform="translate(540.58566,281.50995)"
       id="path5190"
       style="fill:#ff0000;fill-opacity:1;fill-rule:nonzero;stroke:#000000;stroke-width:0;stroke-linejoin:miter;stroke-miterlimit:4;stroke-dasharray:none;stroke-opacity:1" />
    <path
       d="M -141.1004,69.41684 A 5.4592419,5.8791838 0 1 1 -152.01889,69.41684 A 5.4592419,5.8791838 0 1 1 -141.1004,69.41684 z"
       transform="translate(541.42554,263.8724)"
       id="path5192"
       style="fill:#ff5b00;fill-opacity:1;fill-rule:nonzero;stroke:#000000;stroke-width:0;stroke-linejoin:miter;stroke-miterlimit:4;stroke-dasharray:none;stroke-opacity:1" />
    <path
       d="M -141.1004,69.41684 A 5.4592419,5.8791838 0 1 1 -152.01889,69.41684 A 5.4592419,5.8791838 0 1 1 -141.1004,69.41684 z"
       transform="translate(541.42554,244.55508)"
       id="path5196"
       style="fill:#ff5b00;fill-opacity:1;fill-rule:nonzero;stroke:#000000;stroke-width:0;stroke-linejoin:miter;stroke-miterlimit:4;stroke-dasharray:none;stroke-opacity:1" />
    <path
       d="M -141.1004,69.41684 A 5.4592419,5.8791838 0 1 1 -152.01889,69.41684 A 5.4592419,5.8791838 0 1 1 -141.1004,69.41684 z"
       transform="translate(541.42554,227.75741)"
       id="path5198"
       style="fill:#ff5b00;fill-opacity:1;fill-rule:nonzero;stroke:#000000;stroke-width:0;stroke-linejoin:miter;stroke-miterlimit:4;stroke-dasharray:none;stroke-opacity:1" />
    <path
       d="M -141.1004,69.41684 A 5.4592419,5.8791838 0 1 1 -152.01889,69.41684 A 5.4592419,5.8791838 0 1 1 -141.1004,69.41684 z"
       transform="translate(541.42554,210.11986)"
       id="path5200"
       style="fill:#ff5b00;fill-opacity:1;fill-rule:nonzero;stroke:#000000;stroke-width:0;stroke-linejoin:miter;stroke-miterlimit:4;stroke-dasharray:none;stroke-opacity:1" />
    <path
       d="M -141.1004,69.41684 A 5.4592419,5.8791838 0 1 1 -152.01889,69.41684 A 5.4592419,5.8791838 0 1 1 -141.1004,69.41684 z"
       transform="translate(541.42554,194.16208)"
       id="path5202"
       style="fill:#ff5b00;fill-opacity:1;fill-rule:nonzero;stroke:#000000;stroke-width:0;stroke-linejoin:miter;stroke-miterlimit:4;stroke-dasharray:none;stroke-opacity:1" />
    <path
       d="M 136.18775,429.89343 L 155.50506,429.89343"
       id="path5239"
       style="fill:none;stroke:#000000;stroke-width:1px;stroke-linecap:butt;stroke-linejoin:miter;marker-end:url(#Arrow2Lend);stroke-opacity:1" />
    <path
       d="M 167.13679,60.178118 L 167.13679,40.020918 L 296.47883,40.020918 L 296.47883,201.27853"
       transform="translate(227.7291,194.16208)"
       id="path5243"
       style="fill:none;fill-rule:evenodd;stroke:#000000;stroke-width:1px;stroke-linecap:butt;stroke-linejoin:miter;marker-start:none;marker-end:url(#marker7141);stroke-opacity:1" />
    <path
       d="M 226.76851,201.27853 L 362.82962,201.27853"
       transform="translate(227.7291,194.16208)"
       id="path7695"
       style="fill:none;fill-rule:evenodd;stroke:#000000;stroke-width:1px;stroke-linecap:butt;stroke-linejoin:miter;stroke-opacity:1" />
    <path
       d="M 454.49761,463.47116 L 590.55872,463.47116"
       id="path7699"
       style="fill:none;fill-rule:evenodd;stroke:#000000;stroke-width:1px;stroke-linecap:butt;stroke-linejoin:miter;stroke-opacity:1" />
    <path
       d="M 296.47883,269.30908 L 296.47883,299.54488 L 167.13679,299.54488 L 167.13679,260.91025"
       transform="translate(227.7291,194.16208)"
       id="path7703"
       style="fill:none;fill-rule:evenodd;stroke:#000000;stroke-width:1px;stroke-linecap:butt;stroke-linejoin:miter;marker-end:url(#Arrow1Lend);stroke-opacity:1" />
  </g>
</svg>
